<svg xmlns="http://www.w3.org/2000/svg" width="240" height="240" viewBox="0 0 240 240" role="img" aria-label="Luz Skincare demo profile image">
  <defs>
    <linearGradient id="bg" x1="0" y1="0" x2="1" y2="1">
      <stop offset="0" stop-color="#eff6ff"/>
      <stop offset="0.55" stop-color="#dbeafe"/>
      <stop offset="1" stop-color="#bfdbfe"/>
    </linearGradient>
    <linearGradient id="skin" x1="0" y1="0" x2="0" y2="1">
      <stop offset="0" stop-color="#f7d7c8"/>
      <stop offset="1" stop-color="#e8ad96"/>
    </linearGradient>
    <linearGradient id="top" x1="0" y1="0" x2="1" y2="1">
      <stop offset="0" stop-color="#1d4ed8"/>
      <stop offset="1" stop-color="#0e7490"/>
    </linearGradient>
  </defs>
  <rect width="240" height="240" rx="56" fill="url(#bg)"/>
  <circle cx="184" cy="50" r="30" fill="#ffffff" opacity="0.7"/>
  <circle cx="54" cy="184" r="42" fill="#93c5fd" opacity="0.28"/>
  <path d="M58 203c7-45 31-68 63-68s56 23 62 68H58z" fill="url(#top)"/>
  <circle cx="120" cy="100" r="46" fill="url(#skin)"/>
  <path d="M76 98c4-37 24-58 54-58 28 0 46 16 53 43-23-9-48-13-83-7-8 9-15 16-24 22z" fill="#1f2937"/>
  <path d="M88 138c16 15 48 15 64 0 0 29-64 29-64 0z" fill="#f3c0ad" opacity="0.55"/>
  <circle cx="104" cy="100" r="4" fill="#111827"/>
  <circle cx="137" cy="100" r="4" fill="#111827"/>
  <path d="M106 119c9 7 21 7 30 0" fill="none" stroke="#7f1d1d" stroke-width="4" stroke-linecap="round"/>
  <rect x="167" y="153" width="34" height="50" rx="9" fill="#ffffff"/>
  <rect x="174" y="161" width="20" height="6" rx="3" fill="#1d4ed8"/>
  <rect x="176" y="172" width="16" height="20" rx="4" fill="#dbeafe"/>
</svg>
