<svg xmlns="http://www.w3.org/2000/svg" width="240" height="240" viewBox="0 0 240 240" role="img" aria-label="Andrea Piel demo profile image">
  <defs>
    <linearGradient id="bg" x1="0" y1="0" x2="1" y2="1">
      <stop offset="0" stop-color="#f0fdf4"/>
      <stop offset="0.55" stop-color="#dcfce7"/>
      <stop offset="1" stop-color="#ccfbf1"/>
    </linearGradient>
    <linearGradient id="skin" x1="0" y1="0" x2="0" y2="1">
      <stop offset="0" stop-color="#f2c4a7"/>
      <stop offset="1" stop-color="#d89576"/>
    </linearGradient>
    <linearGradient id="top" x1="0" y1="0" x2="1" y2="1">
      <stop offset="0" stop-color="#047857"/>
      <stop offset="1" stop-color="#0f766e"/>
    </linearGradient>
  </defs>
  <rect width="240" height="240" rx="56" fill="url(#bg)"/>
  <circle cx="58" cy="58" r="32" fill="#ffffff" opacity="0.72"/>
  <circle cx="190" cy="178" r="46" fill="#86efac" opacity="0.24"/>
  <path d="M56 205c9-45 33-70 64-70s56 25 64 70H56z" fill="url(#top)"/>
  <circle cx="120" cy="102" r="44" fill="url(#skin)"/>
  <path d="M80 108c-5-39 14-71 47-71 29 0 49 21 52 57-18-15-41-21-68-18-11 9-20 20-31 32z" fill="#3f1f18"/>
  <path d="M90 139c15 13 45 13 60 0 2 26-62 26-60 0z" fill="#efb396" opacity="0.55"/>
  <circle cx="105" cy="102" r="4" fill="#111827"/>
  <circle cx="137" cy="102" r="4" fill="#111827"/>
  <path d="M108 121c8 6 19 6 27 0" fill="none" stroke="#7f1d1d" stroke-width="4" stroke-linecap="round"/>
  <rect x="39" y="156" width="40" height="34" rx="10" fill="#ffffff"/>
  <path d="M50 177l8-10 7 7 6-8 2 11H50z" fill="#047857"/>
</svg>
